<?xml version="1.0" standalone="no"?>
<!DOCTYPE svg PUBLIC "-//W3C//DTD SVG 20010904//EN"
 "http://www.w3.org/TR/2001/REC-SVG-20010904/DTD/svg10.dtd">
<svg version="1.0" xmlns="http://www.w3.org/2000/svg"
 width="311.000000pt" height="311.000000pt" viewBox="0 0 311.000000 311.000000"
 preserveAspectRatio="xMidYMid meet">
<metadata>
Created by potrace 1.11, written by Peter Selinger 2001-2013
</metadata>
<g transform="translate(0.000000,311.000000) scale(0.100000,-0.100000)"
fill="#000000" stroke="none">
<path d="M0 2825 c0 -2 34 -21 76 -42 96 -48 221 -148 296 -237 78 -93 152
-245 178 -365 51 -233 10 -541 -115 -862 -43 -110 -176 -389 -229 -479 -20
-34 -35 -64 -33 -66 2 -2 447 249 990 558 542 310 982 566 979 569 -4 4 -468
206 -1032 449 -564 243 -1042 451 -1062 461 -38 20 -48 22 -48 14z"/>
<path d="M1943 1647 c-541 -309 -982 -566 -980 -571 2 -5 475 -213 1052 -463
1222 -529 1095 -475 1095 -464 0 5 -21 18 -47 29 -130 56 -291 190 -372 311
-197 291 -208 638 -36 1118 47 129 181 417 249 532 38 65 40 72 29 70 -5 0
-450 -254 -990 -562z"/>
</g>
</svg>
